<svg width="22" height="19" viewBox="0 0 22 19" fill="none" xmlns="http://www.w3.org/2000/svg">
<mask id="mask0" mask-type="alpha" maskUnits="userSpaceOnUse" x="0" y="0" width="22" height="19">
<path d="M7.75787 0.815657C7.79368 0.799594 7.83249 0.79129 7.87174 0.79129H14.127C14.1663 0.79129 14.2051 0.799594 14.2409 0.815657L18.4543 2.70535C18.5034 2.72739 18.5451 2.7632 18.5743 2.80846L20.9759 6.53299C21.0416 6.635 21.0337 6.76786 20.9563 6.86132L11.2137 18.6196C11.1024 18.754 10.8964 18.754 10.7851 18.6196L1.04251 6.86132C0.965075 6.76786 0.957146 6.635 1.02292 6.53299L3.42449 2.80846C3.45367 2.7632 3.49535 2.72739 3.54448 2.70535L7.75787 0.815657Z" fill="#C4C4C4"/>
</mask>
<g mask="url(#mask0)">
<rect x="0.913086" y="5.17389" width="20.1739" height="13.7043" fill="#47A9F1"/>
<rect x="0.913086" y="0.79129" width="20.1739" height="5.21739" fill="#7EC7FF"/>
<path d="M10.9999 4.54782L14.826 9.62608H7.17383L10.9999 4.54782Z" fill="#75C1FF"/>
<path d="M10.9999 21.5913L14.826 9.62606H7.17383L10.9999 21.5913Z" fill="#8DCCFC"/>
<path d="M11.0004 4.54779L4.21777 3.53909L7.1743 9.62605L11.0004 4.54779Z" fill="#BFE2F7"/>
<path d="M0.913086 6.70431L4.21743 3.53909L7.17396 9.62605L0.913086 6.70431Z" fill="#87CBFF"/>
<path d="M0.913086 6.70432L4.21743 3.53911L3.487 2.73911L0.913086 6.70432Z" fill="#47A9F1"/>
<path d="M10.9996 4.54779L17.7822 3.53909L14.8257 9.62605L10.9996 4.54779Z" fill="#4BAEF7"/>
<path d="M21.0869 6.70431L17.7826 3.53909L14.826 9.62605L21.0869 6.70431Z" fill="#6EBEFF"/>
<path d="M21.0869 6.70432L17.7826 3.53911L18.513 2.73911L21.0869 6.70432Z" fill="#389BE3"/>
</g>
</svg>
