<svg width="24" height="24" viewBox="0 0 48 48" fill="none" xmlns="http://www.w3.org/2000/svg">
<path d="M38.2406 27.758C40.8366 30.354 40.5566 34.732 37.4046 36.946C35.3986 38.354 32.5966 38.354 30.5906 36.946C27.4366 34.734 27.1586 30.354 29.7546 27.758C32.0986 25.414 35.8986 25.414 38.2406 27.758" stroke="#fff" stroke-width="3" stroke-linecap="round" stroke-linejoin="round"/>
<path d="M41.9983 40L38.2383 36.24" stroke="#fff" stroke-width="3" stroke-linecap="round" stroke-linejoin="round"/>
<path d="M14 26H22" stroke="#fff" stroke-width="3" stroke-linecap="round" stroke-linejoin="round"/>
<path d="M14 18H30" stroke="#fff" stroke-width="3" stroke-linecap="round" stroke-linejoin="round"/>
<path d="M38 20V14C38 10.686 35.314 8 32 8H12C8.686 8 6 10.686 6 14V32C6 35.314 8.686 38 12 38H22" stroke="#fff" stroke-width="3" stroke-linecap="round" stroke-linejoin="round"/>
</svg>
